<svg width="16" height="16" viewBox="0 0 16 16" fill="none" xmlns="http://www.w3.org/2000/svg">
<g clip-path="url(#clip0_247_9072)">
<path d="M0 4C0 1.79086 1.79086 0 4 0H12C14.2091 0 16 1.79086 16 4V12C16 14.2091 14.2091 16 12 16H4C1.79086 16 0 14.2091 0 12V4Z" fill="#414651"/>
<path d="M12 5.5C12 7.70914 8 9.5 8 9.5C8 9.5 4 7.70914 4 5.5C4 3.29086 5.79086 1.5 8 1.5C10.2091 1.5 12 3.29086 12 5.5Z" fill="#85E13A"/>
<path d="M14 8.5C14 10.16 12.6533 11.5 11 11.5H8L11 8.5H14Z" fill="#3CCB7F"/>
<path d="M2 8.5C2 10.16 3.34665 11.5 4.99997 11.5H8L4.99997 8.5H2Z" fill="#3CCB7F"/>
<path d="M15 11.5C15 13.4367 13.4288 15 11.5 15H8L11.5 11.5H15Z" fill="#3CCB7F"/>
<path d="M1 11.5C1 13.4367 2.57109 14.9999 4.49996 15H8L4.49996 11.5H1Z" fill="#3CCB7F"/>
<path d="M4 16H12" stroke="#A4A7AE" stroke-width="2"/>
</g>
<defs>
<clipPath id="clip0_247_9072">
<path d="M0 4C0 1.79086 1.79086 0 4 0H12C14.2091 0 16 1.79086 16 4V12C16 14.2091 14.2091 16 12 16H4C1.79086 16 0 14.2091 0 12V4Z" fill="white"/>
</clipPath>
</defs>
</svg>
