<svg width="16" height="16" viewBox="0 0 16 16" fill="none" xmlns="http://www.w3.org/2000/svg">
<g clip-path="url(#clip0_247_9057)">
<path d="M0 4C0 1.79086 1.79086 0 4 0H12C14.2091 0 16 1.79086 16 4V12C16 14.2091 14.2091 16 12 16H4C1.79086 16 0 14.2091 0 12V4Z" fill="#414651"/>
<path d="M12 8.5C12 10.7091 8 12.5 8 12.5C8 12.5 4 10.7091 4 8.5C4 6.29086 5.79086 4.5 8 4.5C10.2091 4.5 12 6.29086 12 8.5Z" fill="#85E13A"/>
<path d="M15 11.5C15 13.4367 13.4288 15 11.5 15H8L11.5 11.5H15Z" fill="#3CCB7F"/>
<path d="M1 11.5C1 13.4367 2.57109 14.9999 4.49996 15H8L4.49996 11.5H1Z" fill="#3CCB7F"/>
<path d="M4 16H12" stroke="#A4A7AE" stroke-width="2"/>
</g>
<defs>
<clipPath id="clip0_247_9057">
<path d="M0 4C0 1.79086 1.79086 0 4 0H12C14.2091 0 16 1.79086 16 4V12C16 14.2091 14.2091 16 12 16H4C1.79086 16 0 14.2091 0 12V4Z" fill="white"/>
</clipPath>
</defs>
</svg>
